<?xml version="1.0" encoding="UTF-8" standalone="no"?>
<!-- Created with Inkscape (http://www.inkscape.org/) -->

<svg
   width="54.181683mm"
   height="54.177734mm"
   viewBox="0 0 54.181683 54.177734"
   version="1.1"
   id="svg5"
   xml:space="preserve"
   inkscape:version="1.2.2 (b0a8486541, 2022-12-01)"
   sodipodi:docname="gandalf.svg"
   inkscape:export-filename="../Documents/GitHub/site_agse_sens/application/static/403.svg"
   inkscape:export-xdpi="96"
   inkscape:export-ydpi="96"
   xmlns:inkscape="http://www.inkscape.org/namespaces/inkscape"
   xmlns:sodipodi="http://sodipodi.sourceforge.net/DTD/sodipodi-0.dtd"
   xmlns="http://www.w3.org/2000/svg"
   xmlns:svg="http://www.w3.org/2000/svg"><sodipodi:namedview
     id="namedview7"
     pagecolor="#505050"
     bordercolor="#eeeeee"
     borderopacity="1"
     inkscape:showpageshadow="0"
     inkscape:pageopacity="0"
     inkscape:pagecheckerboard="0"
     inkscape:deskcolor="#505050"
     inkscape:document-units="mm"
     showgrid="false"
     inkscape:zoom="1.4142136"
     inkscape:cx="-189.15106"
     inkscape:cy="108.89444"
     inkscape:window-width="1600"
     inkscape:window-height="831"
     inkscape:window-x="0"
     inkscape:window-y="0"
     inkscape:window-maximized="1"
     inkscape:current-layer="layer1"><inkscape:grid
       type="xygrid"
       id="grid115"
       originx="-48.314454"
       originy="-94.621096" /></sodipodi:namedview><defs
     id="defs2" /><g
     inkscape:label="Calque 1"
     inkscape:groupmode="layer"
     id="layer1"
     transform="translate(-48.314453,-94.621094)"><g
       id="g244"><path
         id="path234"
         style="fill:#800000;stroke-width:0.264583"
         inkscape:transform-center-y="-1.3998995e-06"
         d="m 64.972656,94.626953 c -1.508676,0.147381 -2.243953,1.657495 -3.319911,2.519212 -4.445777,4.448345 -8.89411,8.894145 -13.338292,13.344065 6.06e-4,7.47917 0.0013,14.95834 0.002,22.4375 5.28873,5.29199 10.579108,10.58237 15.871094,15.8711 7.479167,0 14.958333,0 22.4375,0 5.291985,-5.28873 10.582365,-10.57911 15.871093,-15.8711 0,-7.47916 0,-14.95833 0,-22.4375 C 97.208062,105.1989 91.918335,99.909171 86.627,94.621094 c -7.218099,0.0018 -14.436198,0.0039 -21.654297,0.0059 z" /><path
         id="path227"
         style="fill:#ffffff;stroke-width:0.264583"
         inkscape:transform-center-y="-1.3998995e-06"
         d="m 64.972656,95.685547 c -0.905632,0.172533 -1.311599,1.132366 -2.004342,1.644967 -4.531427,4.532736 -9.065473,9.062866 -13.595267,13.597216 6.04e-4,7.1875 0.0013,14.375 0.002,21.5625 5.081698,5.08496 10.165046,10.16831 15.25,15.25 7.1875,0 14.375,0 21.5625,0 5.084954,-5.08169 10.168302,-10.16504 15.250003,-15.25 0,-7.1875 0,-14.375 0,-21.5625 -5.08105,-5.0843 -10.163747,-10.167 -15.24805,-15.248042 -7.072036,0.0046 -14.145886,-0.01176 -21.216797,0.0059 z" /><path
         sodipodi:type="star"
         style="fill:#800000;stroke-width:0.264583"
         id="path117"
         inkscape:flatsided="true"
         sodipodi:sides="8"
         sodipodi:cx="75.40625"
         sodipodi:cy="121.70833"
         sodipodi:r1="26.458332"
         sodipodi:r2="24.444313"
         sodipodi:arg1="0"
         sodipodi:arg2="0.39269908"
         inkscape:rounded="0"
         inkscape:randomized="0"
         d="m 101.86458,121.70833 -7.749464,18.70886 -18.708866,7.74947 -18.708866,-7.74947 -7.749466,-18.70886 7.749466,-18.70887 18.708866,-7.749464 18.708866,7.749464 z"
         inkscape:transform-center-y="-1.3998995e-06"
         transform="rotate(22.5,75.40625,121.70833)" /></g><text
       xml:space="preserve"
       style="font-size:7.76111px;font-family:'Hobbiton Brushhand';-inkscape-font-specification:'Hobbiton Brushhand, Normal';fill:#ffffff;stroke-width:0.264583"
       x="53.530712"
       y="121.95621"
       id="text5430"><tspan
         sodipodi:role="line"
         id="tspan5428"
         style="font-size:7.76111px;fill:#ffffff;stroke-width:0.264583"
         x="53.530712"
         y="121.95621">Vous</tspan></text><text
       xml:space="preserve"
       style="font-size:7.7611px;font-family:'Hobbiton Brushhand';-inkscape-font-specification:'Hobbiton Brushhand, Normal';fill:#ffffff;stroke-width:0.264583"
       x="90.114326"
       y="121.85726"
       id="text5484"><tspan
         sodipodi:role="line"
         id="tspan5482"
         style="stroke-width:0.264583"
         x="90.114326"
         y="121.85726">ne</tspan></text><text
       xml:space="preserve"
       style="font-size:7.7611px;font-family:'Hobbiton Brushhand';-inkscape-font-specification:'Hobbiton Brushhand, Normal';fill:#ffffff;stroke-width:0.264583"
       x="61.800392"
       y="136.39626"
       id="text5488"><tspan
         sodipodi:role="line"
         id="tspan5486"
         style="stroke-width:0.264583"
         x="61.800392"
         y="136.39626">passerez </tspan></text><text
       xml:space="preserve"
       style="font-size:8.46667px;font-family:'Hobbiton Brushhand';-inkscape-font-specification:'Hobbiton Brushhand, Normal';fill:#ffffff;stroke-width:0.264583"
       x="68.395599"
       y="144.57095"
       id="text5492"><tspan
         sodipodi:role="line"
         id="tspan5490"
         style="font-size:8.46667px;stroke-width:0.264583"
         x="68.395599"
         y="144.57095">PAS</tspan></text><g
       id="g6474"
       transform="translate(0,0.52916667)"><path
         style="fill:#000000;stroke-width:0.0555951"
         d="m 79.381363,130.59315 c 0.412794,-0.024 0.769297,-0.0465 0.79223,-0.0502 0.127868,-0.0201 0.01793,-1.04179 -0.34343,-3.19155 -1.071803,-6.3762 -1.197909,-7.49178 -1.198518,-10.60259 -4.11e-4,-2.23006 0.01691,-2.37697 0.361143,-3.0589 0.404903,-0.80211 0.613077,-0.89002 2.892879,-1.22174 1.322743,-0.19247 1.648162,-0.27691 1.835375,-0.47627 0.118507,-0.12619 0.134532,-0.19155 0.126334,-0.51525 -0.0052,-0.20391 -0.0746,-0.75579 -0.154294,-1.22642 -0.0797,-0.47062 -0.137966,-0.86262 -0.129485,-0.8711 0.0085,-0.008 0.08056,-0.0318 0.160183,-0.0517 0.129776,-0.0326 0.156822,-0.0107 0.26126,0.21151 0.0957,0.20359 0.111173,0.31597 0.08666,0.62946 -0.03424,0.43797 0.06069,1.08891 0.789431,5.41297 1.301947,7.72527 1.778383,10.33511 1.953914,10.7032 0.125858,0.26393 0.280539,0.30369 0.443656,0.11406 0.151988,-0.1767 0.154119,-0.22935 0.04226,-1.04452 -0.255446,-1.86154 -2.363482,-14.30863 -2.565812,-15.15007 l -0.150033,-0.62396 0.125597,-0.13369 c 0.289415,-0.30807 0.179727,-1.22372 -0.181146,-1.51217 -0.09485,-0.0758 -0.203721,-0.16346 -0.241942,-0.19478 -0.03932,-0.0322 -0.06965,-0.18275 -0.06986,-0.34664 -4.53e-4,-0.35901 -0.15202,-1.38319 -0.447902,-3.02655 -0.388411,-2.1573 -0.426212,-2.26378 -0.790998,-2.22826 -0.28818,0.0281 -0.302351,0.17178 -0.128742,1.30574 0.185794,1.21353 0.600463,3.29871 0.760894,3.82618 0.171027,0.5623 0.194685,0.84504 0.0812,0.97043 -0.180555,0.19952 -0.291786,0.17628 -0.5325,-0.11122 -0.124207,-0.14836 -0.270338,-0.28386 -0.324736,-0.30113 -0.0544,-0.0173 -0.659828,0.1297 -1.345401,0.32659 -0.685573,0.19689 -2.007112,0.56086 -2.936752,0.80883 -0.929638,0.24797 -1.990464,-0.16201 -2.011479,-0.14902 -0.02101,0.013 0.228388,1.12969 0.208328,1.71952 -0.08267,2.4297 -0.313667,3.77379 -0.932278,5.42452 -0.393642,1.05041 -0.645158,1.58528 -0.722878,1.53724 -0.159258,-0.0984 -1.21344,-2.50928 -1.518564,-3.47287 -0.305765,-0.96561 -0.375624,-1.58248 -0.35866,-3.16701 l 0.256354,-1.94792 -1.155967,0.52054 c -0.846585,0.38122 -1.328502,-0.12619 -3.276992,-0.48877 -1.147136,-0.21347 -2.098653,-0.36052 -2.343675,-0.36221 -0.135237,-0.001 -0.150888,0.0224 -0.1859,0.27695 -0.03737,0.27168 -0.04252,0.27798 -0.227597,0.27798 -0.114247,0 -0.189502,-0.0276 -0.189708,-0.0695 -1.67e-4,-0.0382 -0.03616,-0.13816 -0.07994,-0.22209 -0.08099,-0.15526 -0.06456,-0.47421 0.03438,-0.66743 0.06482,-0.12658 0.440143,-0.12905 1.105777,-0.007 0.270633,0.0495 0.576661,0.0742 0.680062,0.0547 0.208916,-0.0392 0.338495,-0.21698 0.308139,-0.42278 -0.03333,-0.22597 -0.252674,-0.32661 -0.852778,-0.39127 -1.084031,-0.11681 -1.028511,-0.10399 -1.028484,-0.23755 1.4e-5,-0.0669 0.13621,-1.52268 0.302658,-3.23501 0.406633,-4.183239 0.478352,-5.056469 0.481794,-5.866229 0.0025,-0.582953 -0.01142,-0.699331 -0.0904,-0.757087 -0.209249,-0.153007 -0.360069,0.06293 -0.492071,0.704507 -0.126743,0.61601 -0.268105,1.772874 -0.672294,5.501849 -0.200517,1.84992 -0.378041,3.42857 -0.394498,3.5081 l -0.02992,0.1446 -0.873025,0.0371 c -0.842904,0.0358 -0.87734,0.042 -0.998115,0.17817 -0.300324,0.33871 -0.121749,0.44723 0.952546,0.57884 0.478556,0.0586 0.894691,0.1218 0.924742,0.14038 0.03005,0.0186 0.05464,0.15738 0.05464,0.30846 0,0.23424 -0.0158,0.27469 -0.10722,0.27469 -0.195496,0 -0.281946,0.1521 -0.281946,0.49603 0,0.34836 0.07412,0.61989 0.228814,0.83826 0.09254,0.13063 0.09328,0.17073 0.01218,0.66714 -0.04745,0.29048 -0.08409,0.63469 -0.08143,0.7649 0.0056,0.27216 0.139656,0.56938 0.256861,0.56938 0.148583,0 0.207926,-0.23636 0.253013,-1.00773 0.0247,-0.42261 0.06078,-0.79406 0.08018,-0.82544 0.06569,-0.1063 0.448612,-0.0655 0.562138,0.0599 0.09328,0.10303 0.109222,0.23507 0.133706,1.10754 0.02699,0.96186 0.03183,0.99485 0.166785,1.13876 0.227931,0.24304 0.464469,0.30348 1.862435,0.4759 1.73759,0.2143 2.016842,0.29626 2.418384,0.70978 0.315029,0.32442 0.410536,0.53983 0.620289,1.399 0.103459,0.42378 0.104492,4.02657 0.0014,4.80897 -0.207268,1.57269 -0.432106,2.78062 -1.044561,5.61188 -0.961928,4.44679 -0.986924,4.5789 -0.893425,4.72159 0.113979,0.17396 0.44177,0.25166 1.341051,0.31791 0.934654,0.0688 7.443031,0.10886 8.425715,0.0518 z m -4.048357,-21.26823 c 0.257894,-0.14004 0.253911,-0.44047 -0.0077,-0.58048 -0.263029,-0.14077 -0.805308,-0.0335 -0.960543,0.19009 -0.07997,0.11515 -0.04066,0.30401 0.08101,0.38923 0.157313,0.11019 0.685162,0.11088 0.887233,0.001 z m -1.177578,-0.6468 c 0.353728,-0.15249 0.639941,-0.23671 0.866641,-0.255 0.305868,-0.0247 0.391468,-0.005 0.888282,0.2076 0.381612,0.16304 0.574636,0.21923 0.630998,0.18367 0.235554,-0.14858 0.392952,-0.76885 0.393511,-1.55073 l 4.12e-4,-0.45101 0.30862,-0.0363 c 0.479228,-0.0563 2.214163,-0.41042 2.379094,-0.48557 0.196669,-0.0896 0.18619,-0.19403 -0.03305,-0.32938 -0.271977,-0.1679 -0.653474,-0.26386 -1.536601,-0.3865 -0.439981,-0.0611 -0.83264,-0.13821 -0.872575,-0.17136 -0.102768,-0.0853 -0.227065,-0.49732 -0.326119,-1.08107 -0.14559,-0.85798 -0.401553,-2.67304 -0.563234,-3.99394 -0.0852,-0.696109 -0.18505,-1.306859 -0.22188,-1.357219 -0.05933,-0.0812 -0.08028,-0.0697 -0.183871,0.10065 -0.184809,0.30386 -0.620195,1.342589 -1.653519,3.944889 l -0.960294,2.41838 -0.517182,0.0952 c -2.193183,0.40363 -2.911656,0.58396 -2.974008,0.74644 -0.08672,0.22599 0.32707,0.34699 1.872342,0.54752 0.595853,0.0773 1.124615,0.15368 1.175024,0.16968 0.07002,0.0222 0.100538,0.13041 0.129272,0.45823 0.09345,1.06611 0.232963,1.45929 0.51636,1.45557 0.08454,-0.001 0.391373,-0.10453 0.681857,-0.22976 z"
         id="path1177"
         sodipodi:nodetypes="csscsssssssssssssscssssssssssssssssssscsscsscsssssssscsssscssssssssssssssssssscssscccssscccsssccsssssssscscsssssscc" /><path
         style="fill:#ffffff;stroke:#000000;stroke-width:0.000271138;stroke-dasharray:none;stroke-opacity:1"
         d="m 283.63267,443.78342 c -1.01552,-1.53455 -4.46275,-9.58049 -5.52937,-12.90572 -0.98369,-3.06667 -1.25429,-4.95565 -1.3126,-9.16282 l -0.0378,-2.72606 0.47344,-3.57057 c 0.26039,-1.96381 0.47369,-3.61021 0.47399,-3.65866 3e-4,-0.0491 0.2625,-0.16086 0.59184,-0.25234 0.32521,-0.0903 1.18852,-0.40304 1.91846,-0.69492 1.62846,-0.65118 2.40168,-0.87937 3.31718,-0.97896 1.00532,-0.10937 1.3921,-0.0234 3.2469,0.72188 0.86803,0.34878 1.77194,0.67545 2.00868,0.72595 0.23673,0.0505 0.43914,0.0977 0.4498,0.10499 0.0341,0.0232 0.43248,2.40081 0.58865,3.51353 0.21259,1.51468 0.24828,2.60485 0.15147,4.62713 -0.43507,9.08891 -1.45789,13.96475 -4.47989,21.35581 -0.78805,1.92739 -1.42332,3.17877 -1.6137,3.17877 -0.0347,0 -0.14589,-0.12511 -0.24707,-0.27801 z m 0.93193,-30.49652 c 0.61507,-0.27207 0.88296,-0.6316 0.88296,-1.18498 0,-0.55721 -0.26622,-0.91103 -0.89762,-1.19297 -0.29158,-0.13021 -0.48392,-0.15906 -1.03932,-0.15592 -1.57475,0.009 -2.78528,0.79306 -2.61614,1.69465 0.0713,0.37984 0.28523,0.67353 0.61228,0.84038 0.58654,0.29923 2.3803,0.29855 3.05784,-10e-4 z"
         id="path6451"
         transform="scale(0.26458333)" /></g></g></svg>
