<?xml version="1.0" encoding="UTF-8" standalone="no"?>
<svg xmlns:dc="http://purl.org/dc/elements/1.1/" xmlns:cc="http://web.resource.org/cc/" xmlns:rdf="http://www.w3.org/1999/02/22-rdf-syntax-ns#" xmlns:svg="http://www.w3.org/2000/svg" xmlns="http://www.w3.org/2000/svg" xmlns:sodipodi="http://sodipodi.sourceforge.net/DTD/sodipodi-0.dtd" xmlns:inkscape="http://www.inkscape.org/namespaces/inkscape" width="560pt" height="560pt" viewBox="0 0 560 560" version="1.1" id="svg2" sodipodi:version="0.32" inkscape:version="0.45.1" sodipodi:docname="logo_europe.svg" sodipodi:docbase="/home/jeoire/Desktop/ScoutWiki/images" inkscape:output_extension="org.inkscape.output.svg.inkscape">
  <metadata id="metadata23">
    <rdf:RDF>
      <cc:Work rdf:about="">
        <dc:format>image/svg+xml</dc:format>
        <dc:type rdf:resource="http://purl.org/dc/dcmitype/StillImage"/>
      </cc:Work>
    </rdf:RDF>
  </metadata>
  <sodipodi:namedview inkscape:window-height="598" inkscape:window-width="822" inkscape:pageshadow="2" inkscape:pageopacity="0.0" guidetolerance="10.0" gridtolerance="10.0" objecttolerance="10.0" borderopacity="1.0" bordercolor="#666666" pagecolor="#ffffff" id="base" inkscape:zoom="0.53714286" inkscape:cx="361.8472" inkscape:cy="239.62094" inkscape:window-x="0" inkscape:window-y="27" inkscape:current-layer="svg2" showgrid="true"/>
  <defs id="defs4">
    <clipPath id="clip0">
      <rect width="560" height="560" id="rect7"/>
    </clipPath>
  </defs>
  <path id="path16" d="M 313.04231,24.97291 C 322.62465,15.327186 333.53083,6.2349527 346.74708,2.1939203 C 337.37788,77.917708 330.56529,154.04784 329.04952,230.35947 C 405.49539,228.9226 481.76336,222.07098 557.60989,212.62323 C 552.37206,227.30568 542.16091,239.53385 530.78391,249.91714 C 517.85492,261.64429 503.57034,271.87582 488.42998,280.54838 C 490.77899,282.71462 493.76385,283.9794 496.39948,285.75041 C 511.88126,295.60516 526.73188,306.70104 539.31311,320.13247 C 547.1193,328.45477 553.77544,338.04958 557.4918,348.91459 C 481.68565,339.48184 405.46306,332.70016 329.06475,331.16337 C 330.46526,403.87213 336.75489,476.42313 345.43539,548.60402 C 345.81326,552.32841 346.68367,556.02746 346.4975,559.79708 C 342.00948,557.53525 337.2276,555.85107 333.01826,553.06377 C 319.95794,544.85432 309.33665,533.3764 299.76905,521.41062 C 292.02412,511.53834 284.91008,501.15106 278.70881,490.24058 C 269.31732,506.2433 258.53694,521.509 245.80716,535.04346 C 235.8657,545.51056 224.27284,554.86896 210.49086,559.68737 C 217.42291,505.41553 222.54628,450.91126 225.77378,396.29503 C 226.94128,374.60762 228.04462,352.90913 228.25547,331.18795 C 151.92512,332.63179 75.789038,339.56201 0.03965143,348.82958 C 3.7919259,336.82953 11.662604,326.67039 20.286477,317.74155 C 34.718403,303.1745 51.50176,291.05057 69.235202,280.82798 C 54.120043,271.9967 39.700193,261.87658 26.734862,250.09038 C 15.487822,239.59967 4.7367352,227.59911 2e-07,212.65935 C 65.597392,220.95426 131.51704,226.84493 197.58512,229.5756 C 207.80447,229.96725 218.03124,230.3107 228.26005,230.34242 C 227.89752,201.53133 226.28923,172.75355 224.43475,144.00584 C 221.17654,96.597437 216.54043,49.283476 210.53563,2.1431501 C 221.47717,5.5291684 230.94111,12.387717 239.26321,20.085498 C 255.0364,34.92831 267.73362,52.732937 278.70198,71.326296 C 288.33396,54.648608 299.65698,38.854188 313.04231,24.97291 z " style="fill: rgb(194, 5, 46); fill-rule: nonzero; stroke: none;"/>
  <path id="path20" d="M 244.42033,161.94532 C 249.54578,141.84042 262.92935,124.37303 279.84152,112.62152 C 296.64602,124.55907 310.15997,141.91711 315.19713,162.11646 C 318.13973,173.45064 317.77437,185.32306 316.13908,196.82949 C 311.74298,226.56028 301.12201,254.82798 292.82503,283.58642 C 288.93507,297.49558 284.76813,311.6734 285.28191,326.2693 C 285.13662,334.60682 287.47752,342.69664 289.95565,350.57432 C 294.71292,350.81024 299.47801,350.6208 304.2408,350.73434 C 286.64726,321.8139 291.09244,282.41339 312.1002,256.43417 C 320.01719,246.78933 331.13031,239.05894 343.79481,237.74722 C 356.24547,236.50102 369.22239,240.952 378.10503,249.81843 C 392.68207,264.02524 396.52588,289.11406 384.13987,305.88005 C 374.91085,318.6132 358.35988,323.24705 343.2811,323.07218 C 350.2959,315.47175 356.81997,305.44151 354.82402,294.62124 C 352.28914,281.52461 336.98092,274.1767 324.67722,277.56579 C 315.62983,279.67062 308.87796,287.56313 306.61326,296.35797 C 303.14411,309.38492 305.03639,323.85455 312.06846,335.40214 C 315.13862,340.74939 319.31706,345.3645 322.35602,350.73024 C 324.06673,353.68741 324.8019,357.38152 323.66397,360.67415 C 322.28602,364.04043 318.46512,365.64989 315.01797,365.62159 C 308.86373,365.69043 302.70899,365.54907 296.55668,365.66697 C 300.7299,373.43635 305.23702,381.09143 310.95376,387.84454 C 300.50277,398.48497 290.2572,409.32412 279.84248,420 C 269.34242,409.35588 259.01753,398.54133 248.61461,387.80411 C 254.36373,381.079 258.87808,373.41413 263.00203,365.618 C 256.31343,365.52279 249.61384,365.82738 242.93522,365.50209 C 238.31358,365.20931 234.4493,360.84463 235.34335,356.15899 C 236.58165,349.14745 242.13665,344.11534 245.71879,338.25557 C 254.14723,326.10577 256.85466,310.19865 252.85265,295.96257 C 250.69664,288.19404 245.15938,281.10818 237.42386,278.34802 C 224.79692,273.33956 207.78037,280.44624 204.82338,294.28714 C 202.58086,305.23605 209.26641,315.32339 216.22458,323.09926 C 204.49099,323.03636 192.22083,320.63433 182.74591,313.32127 C 174.29095,306.9152 168.95483,296.75417 168.17451,286.20684 C 166.85838,271.57975 173.05484,256.43331 184.45782,247.13116 C 192.94855,240.12239 204.27978,236.79244 215.21254,237.68632 C 228.23653,238.85323 239.70398,246.79776 247.73644,256.77184 C 268.52273,282.72061 272.83107,321.89962 255.3639,350.68894 C 260.06216,350.6918 264.76167,350.71384 269.46235,350.65435 C 272.36288,342.49651 274.48786,333.92028 274.34374,325.21033 C 274.63549,313.97079 271.94663,302.95114 269.14423,292.15264 C 262.29145,266.85843 253.22582,242.1949 247.22278,216.66513 C 243.19172,198.8344 239.80252,180.00664 244.42033,161.94532 z " style="fill: rgb(253, 232, 17); fill-rule: nonzero; stroke: none;"/>
  <path id="path10" d="M 0,0 L 560,0 L 560,560 L 0,560 L 0,0 z " style="fill: none; stroke: rgb(255, 255, 255); stroke-width: 0.1; stroke-linecap: butt; stroke-linejoin: miter; stroke-miterlimit: 10;"/>
</svg>